<?xml version="1.0" encoding="UTF-8" standalone="no"?>
<svg
   xmlns:dc="http://purl.org/dc/elements/1.1/"
   xmlns:cc="http://creativecommons.org/ns#"
   xmlns:rdf="http://www.w3.org/1999/02/22-rdf-syntax-ns#"
   xmlns:svg="http://www.w3.org/2000/svg"
   xmlns="http://www.w3.org/2000/svg"
   xmlns:sodipodi="http://sodipodi.sourceforge.net/DTD/sodipodi-0.dtd"
   xmlns:inkscape="http://www.inkscape.org/namespaces/inkscape"
   version="1.1"
   id="svg833"
   width="200"
   height="200"
   viewBox="0 0 200 200"
   sodipodi:docname="exit.svg"
   inkscape:version="1.0 (4035a4fb49, 2020-05-01)">
  <metadata
     id="metadata839">
    <rdf:RDF>
      <cc:Work
         rdf:about="">
        <dc:format>image/svg+xml</dc:format>
        <dc:type
           rdf:resource="http://purl.org/dc/dcmitype/StillImage" />
        <dc:title />
      </cc:Work>
    </rdf:RDF>
  </metadata>
  <defs
     id="defs837" />
  <sodipodi:namedview
     inkscape:document-rotation="0"
     pagecolor="#ffffff"
     bordercolor="#666666"
     borderopacity="1"
     objecttolerance="10"
     gridtolerance="10"
     guidetolerance="10"
     inkscape:pageopacity="0"
     inkscape:pageshadow="2"
     inkscape:window-width="1920"
     inkscape:window-height="1001"
     id="namedview835"
     showgrid="false"
     inkscape:zoom="0.57911343"
     inkscape:cx="65.015182"
     inkscape:cy="266.80323"
     inkscape:window-x="-9"
     inkscape:window-y="-9"
     inkscape:window-maximized="1"
     inkscape:current-layer="g841" />
  <g
     transform="translate(-157.97433,-142.30647)"
     inkscape:groupmode="layer"
     inkscape:label="Image"
     id="g841">
    <path
       style="fill:#000000;stroke-width:0.407258"
       d="m 250.34131,342.19986 c -24.70793,-2.08819 -47.45542,-11.96514 -64.09739,-27.83101 -15.79516,-15.05858 -25.63913,-34.58454 -27.94635,-55.43291 -0.62985,-5.69148 -0.29972,-17.45317 0.64771,-23.07632 3.16008,-18.75544 12.93648,-36.77801 27.15146,-50.05307 5.43876,-5.07913 11.38118,-9.59281 14.48708,-11.00392 8.48023,-3.85287 18.06984,-0.7247 22.3094,7.2774 1.22619,2.31443 1.34669,2.87536 1.3443,6.25799 -0.002,2.98626 -0.19954,4.17261 -1.00567,6.0433 -1.0698,2.48259 -1.61137,3.02829 -11.37014,11.45687 -13.33333,11.51593 -20.51141,26.78932 -20.53048,43.68438 -0.012,10.64536 2.04897,18.78014 7.11775,28.09404 8.07489,14.83765 21.47292,25.50132 38.72454,30.82139 31.20667,9.62353 65.8139,-3.68377 80.39889,-30.91528 5.07874,-9.48246 7.05703,-17.34512 7.04501,-28.00015 -0.0192,-17.03909 -7.28902,-32.38392 -20.83372,-43.97509 -9.16782,-7.84555 -9.9961,-8.68126 -11.0669,-11.16616 -0.8049,-1.86786 -1.00414,-3.06156 -1.00869,-6.0433 -0.005,-3.42104 0.10459,-3.91934 1.3846,-6.28397 3.34537,-6.18005 9.52214,-9.46779 16.5413,-8.80451 3.70912,0.3505 6.99915,1.85579 11.73677,5.36993 18.80488,13.94854 31.87638,34.94658 35.63259,57.24015 0.94744,5.62315 1.27757,17.38484 0.64771,23.07632 -1.67501,15.13567 -7.24871,29.41263 -16.55351,42.40162 -15.41355,21.51647 -40.49457,36.1255 -68.91735,40.14252 -4.13525,0.58444 -18.02403,1.0422 -21.83891,0.71978 z m 4.99558,-92.46736 c -5.06373,-0.78647 -10.32236,-4.50908 -12.5425,-8.87891 l -1.14624,-2.25611 V 196.1605 153.72352 l 1.1365,-2.23647 c 1.33969,-2.63635 4.36309,-5.74744 6.93799,-7.13925 8.24132,-4.45466 18.85672,-1.35916 23.19218,6.76296 l 1.38568,2.59597 0.11173,41.6427 c 0.12348,46.02698 0.24418,43.80453 -2.58519,47.60176 -3.72595,5.00049 -10.3684,7.7321 -16.49015,6.78131 z"
       id="path845" />
  </g>
</svg>
