<?xml version="1.0" encoding="UTF-8" standalone="no"?>
<svg
   xmlns:dc="http://purl.org/dc/elements/1.1/"
   xmlns:cc="http://creativecommons.org/ns#"
   xmlns:rdf="http://www.w3.org/1999/02/22-rdf-syntax-ns#"
   xmlns:svg="http://www.w3.org/2000/svg"
   xmlns="http://www.w3.org/2000/svg"
   xmlns:sodipodi="http://sodipodi.sourceforge.net/DTD/sodipodi-0.dtd"
   xmlns:inkscape="http://www.inkscape.org/namespaces/inkscape"
   version="1.1"
   id="svg833"
   width="200"
   height="199.99998"
   viewBox="0 0 200 199.99998"
   sodipodi:docname="forgot password.svg"
   inkscape:version="1.0 (4035a4fb49, 2020-05-01)">
  <metadata
     id="metadata839">
    <rdf:RDF>
      <cc:Work
         rdf:about="">
        <dc:format>image/svg+xml</dc:format>
        <dc:type
           rdf:resource="http://purl.org/dc/dcmitype/StillImage" />
        <dc:title />
      </cc:Work>
    </rdf:RDF>
  </metadata>
  <defs
     id="defs837" />
  <sodipodi:namedview
     inkscape:document-rotation="0"
     pagecolor="#ffffff"
     bordercolor="#666666"
     borderopacity="1"
     objecttolerance="10"
     gridtolerance="10"
     guidetolerance="10"
     inkscape:pageopacity="0"
     inkscape:pageshadow="2"
     inkscape:window-width="1920"
     inkscape:window-height="1001"
     id="namedview835"
     showgrid="false"
     inkscape:zoom="0.58689863"
     inkscape:cx="-159.13943"
     inkscape:cy="0.12512025"
     inkscape:window-x="-9"
     inkscape:window-y="-9"
     inkscape:window-maximized="1"
     inkscape:current-layer="g841" />
  <g
     transform="translate(-146.11347,-142.5533)"
     inkscape:groupmode="layer"
     inkscape:label="Image"
     id="g841">
    <path
       style="fill:#000000;stroke-width:0.479142"
       d="m 156.85651,341.85859 c -5.21353,-1.49454 -9.16437,-5.10217 -10.27983,-9.38681 -0.41514,-1.59462 -0.53734,-17.94829 -0.42192,-56.4635 l 0.16248,-54.21871 1.13297,-2.02467 c 1.4482,-2.58801 4.881,-5.42384 8.01381,-6.6202 2.24954,-0.85905 3.4747,-0.94719 14.91321,-1.07289 l 12.46233,-0.13696 0.27296,-12.4923 c 0.20149,-9.22149 0.49273,-13.27043 1.11232,-15.4642 5.93457,-21.01244 24.03269,-35.8952 49.42411,-40.64329 5.62291,-1.05147 19.2589,-1.0401 25.21841,0.021 22.0639,3.92856 40.14455,17.09048 47.1459,34.32014 2.74299,6.75022 3.01613,8.54917 3.30493,21.76633 l 0.27296,12.49231 12.46233,0.13695 c 11.43851,0.1257 12.66367,0.21384 14.91321,1.07289 3.13281,1.19636 6.56561,4.03219 8.01381,6.6202 l 1.13297,2.02468 v 55.52518 55.52519 l -1.13297,2.02467 c -1.4482,2.58801 -4.881,5.42384 -8.01381,6.6202 l -2.45089,0.93594 -87.50969,0.0973 c -81.92319,0.0911 -87.67823,0.049 -90.1496,-0.65948 z m 176.26492,-8.55049 c 0.79898,-0.34132 1.7361,-1.13442 2.08249,-1.76246 0.4773,-0.86537 0.6298,-14.00763 0.6298,-54.273 0,-57.74319 0.14577,-54.91087 -2.88469,-56.05152 -2.00261,-0.75378 -171.46474,-0.75378 -173.46735,0 -3.0317,1.14111 -2.88631,-1.70876 -2.86601,56.18089 0.02,57.19453 -0.10179,54.64744 2.67518,55.91893 1.95233,0.89392 171.73735,0.88137 173.83058,-0.0128 z m -92.17774,-29.86384 v -4.35492 h 5.27167 5.27166 v 4.35492 4.35492 h -5.27166 -5.27167 z m 0.0116,-13.82686 c 0.0177,-7.80519 1.16584,-9.26003 10.76515,-13.64041 7.94003,-3.62321 10.30012,-6.27977 10.30701,-11.60177 0.009,-7.05596 -7.3443,-13.18996 -15.81209,-13.18996 -6.25648,0 -12.48867,3.57559 -14.68515,8.42529 -0.62142,1.37207 -1.12986,2.97725 -1.12986,3.56707 0,1.06885 -0.0176,1.07239 -5.33241,1.07239 h -5.33241 l 0.37756,-2.49642 c 2.42097,-16.00709 24.41158,-24.43371 40.59945,-15.55737 10.70903,5.87212 14.75939,17.78401 9.31506,27.39506 -2.23651,3.94817 -5.52869,6.45 -12.63617,9.60262 l -5.89083,2.61295 -0.007,4.46379 -0.007,4.46379 h -5.27166 -5.27167 z m 57.84813,-89.92903 c -0.19808,-10.785 -0.36275,-12.71498 -1.33494,-15.64523 -5.33353,-16.0756 -19.0506,-27.40715 -38.50861,-31.81165 -5.96568,-1.35039 -19.11575,-1.35914 -25.24816,-0.0168 -19.52659,4.27421 -33.38392,15.65651 -38.74941,31.82846 -0.97219,2.93024 -1.13687,4.86023 -1.33495,15.64522 l -0.22598,12.30264 h 52.81399 52.81398 l -0.22595,-12.30263 z"
       id="path845" />
  </g>
</svg>
