<?xml version="1.0" encoding="UTF-8" standalone="no"?>
<svg
   xmlns:dc="http://purl.org/dc/elements/1.1/"
   xmlns:cc="http://creativecommons.org/ns#"
   xmlns:rdf="http://www.w3.org/1999/02/22-rdf-syntax-ns#"
   xmlns:svg="http://www.w3.org/2000/svg"
   xmlns="http://www.w3.org/2000/svg"
   xmlns:sodipodi="http://sodipodi.sourceforge.net/DTD/sodipodi-0.dtd"
   xmlns:inkscape="http://www.inkscape.org/namespaces/inkscape"
   version="1.1"
   id="svg833"
   width="200"
   height="200"
   viewBox="0 0 200 200"
   sodipodi:docname="login.svg"
   inkscape:version="1.0 (4035a4fb49, 2020-05-01)">
  <metadata
     id="metadata839">
    <rdf:RDF>
      <cc:Work
         rdf:about="">
        <dc:format>image/svg+xml</dc:format>
        <dc:type
           rdf:resource="http://purl.org/dc/dcmitype/StillImage" />
        <dc:title />
      </cc:Work>
    </rdf:RDF>
  </metadata>
  <defs
     id="defs837" />
  <sodipodi:namedview
     inkscape:document-rotation="0"
     pagecolor="#ffffff"
     bordercolor="#666666"
     borderopacity="1"
     objecttolerance="10"
     gridtolerance="10"
     guidetolerance="10"
     inkscape:pageopacity="0"
     inkscape:pageshadow="2"
     inkscape:window-width="1920"
     inkscape:window-height="1001"
     id="namedview835"
     showgrid="false"
     inkscape:zoom="1.3042192"
     inkscape:cx="135.41905"
     inkscape:cy="108.75743"
     inkscape:window-x="-9"
     inkscape:window-y="-9"
     inkscape:window-maximized="1"
     inkscape:current-layer="g841" />
  <g
     transform="translate(-12.260381,-13.942577)"
     inkscape:groupmode="layer"
     inkscape:label="Image"
     id="g841">
    <path
       style="fill:#000000;stroke-width:1.01445"
       d="m 76.580527,212.43175 c -8.208501,-4.17793 -14.402269,-12.15445 -17.332566,-22.32137 -1.599872,-5.5509 -1.807181,-8.93139 -1.782456,-29.06571 l 0.02798,-22.78424 2.420544,-2.30502 c 3.179876,-3.02812 8.784188,-3.02812 11.964064,0 l 2.420544,2.30502 0.03131,21.38281 c 0.02801,19.13027 0.2144,21.77262 1.76935,25.08314 3.524727,7.50423 1.714005,7.28004 58.800603,7.28004 56.36037,0 54.88374,0.16652 58.40975,-6.58693 1.61297,-3.08935 1.69037,-6.36034 1.69037,-71.43144 0,-65.071099 -0.0774,-68.342096 -1.69037,-71.431442 -3.52601,-6.753454 -2.04938,-6.586933 -58.40975,-6.586933 -57.086598,0 -55.275876,-0.224183 -58.800605,7.280038 -1.557404,3.315744 -1.739021,5.922682 -1.747454,25.083139 l -0.0094,21.382818 -3.112258,2.75141 c -3.555366,3.14315 -7.717735,2.90874 -11.558425,-0.65092 L 57.405423,89.71567 57.644068,64.865369 C 57.869424,41.398633 57.997771,39.735181 59.949302,34.9879 63.230588,27.005865 68.511738,20.395425 74.302553,17.021866 l 5.285693,-3.079289 56.370324,0.322142 56.37034,0.322143 4.73575,3.405534 c 5.76614,4.146488 9.47349,9.447232 12.53648,17.924538 l 2.31596,6.409794 0.2561,68.573842 c 0.28461,76.20423 0.19245,77.69557 -5.43396,87.93422 -3.29308,5.99259 -9.81612,12.17891 -14.69765,13.93895 -4.87799,1.75878 -111.956771,1.44161 -115.461063,-0.34199 z m 41.926633,-50.56554 c -4.46686,-6.89126 -3.05401,-11.28463 8.33475,-25.91743 l 8.09626,-10.40245 -59.307919,-0.57792 -59.307924,-0.57791 -1.712999,-2.74677 c -2.418341,-3.87777 -2.961448,-7.71767 -1.66586,-11.77802 2.247493,-7.04362 0.50894,-6.85803 64.243917,-6.85803 h 58.124295 l -8.56677,-11.26932 c -4.71172,-6.198122 -9.01138,-12.405398 -9.55479,-13.793944 -1.59146,-4.066529 -1.15065,-8.027491 1.31704,-11.834538 1.89542,-2.924145 2.965,-3.556165 6.01816,-3.556165 3.64195,0 4.05831,0.448554 21.73498,23.415837 23.9525,31.12149 23.95326,25.85572 -0.008,56.40178 -17.55569,22.38003 -18.1275,22.98559 -21.73497,23.01788 -3.06051,0.0274 -4.10586,-0.58537 -6.01001,-3.523 z"
       id="path845" />
  </g>
</svg>
